solid OpenSCAD_Model
  facet normal -0 0 1
    outer loop
      vertex -0.173438 0.0234375 0.0234375
      vertex -0.126563 -0.0234375 0.0234375
      vertex -0.126563 0.0234375 0.0234375
    endloop
  endfacet
  facet normal 0 0 1
    outer loop
      vertex -0.126563 -0.0234375 0.0234375
      vertex -0.173438 0.0234375 0.0234375
      vertex -0.173438 -0.0234375 0.0234375
    endloop
  endfacet
  facet normal 0 0 -1
    outer loop
      vertex -0.173438 -0.0234375 -0.0234375
      vertex -0.126563 0.0234375 -0.0234375
      vertex -0.126563 -0.0234375 -0.0234375
    endloop
  endfacet
  facet normal -0 0 -1
    outer loop
      vertex -0.126563 0.0234375 -0.0234375
      vertex -0.173438 -0.0234375 -0.0234375
      vertex -0.173438 0.0234375 -0.0234375
    endloop
  endfacet
  facet normal 0 -1 0
    outer loop
      vertex -0.173438 -0.0234375 -0.0234375
      vertex -0.126563 -0.0234375 0.0234375
      vertex -0.173438 -0.0234375 0.0234375
    endloop
  endfacet
  facet normal 0 -1 -0
    outer loop
      vertex -0.126563 -0.0234375 0.0234375
      vertex -0.173438 -0.0234375 -0.0234375
      vertex -0.126563 -0.0234375 -0.0234375
    endloop
  endfacet
  facet normal 1 -0 0
    outer loop
      vertex -0.126563 -0.0234375 0.0234375
      vertex -0.126563 0.0234375 -0.0234375
      vertex -0.126563 0.0234375 0.0234375
    endloop
  endfacet
  facet normal 1 0 0
    outer loop
      vertex -0.126563 0.0234375 -0.0234375
      vertex -0.126563 -0.0234375 0.0234375
      vertex -0.126563 -0.0234375 -0.0234375
    endloop
  endfacet
  facet normal 0 1 -0
    outer loop
      vertex -0.126563 0.0234375 -0.0234375
      vertex -0.173438 0.0234375 0.0234375
      vertex -0.126563 0.0234375 0.0234375
    endloop
  endfacet
  facet normal 0 1 0
    outer loop
      vertex -0.173438 0.0234375 0.0234375
      vertex -0.126563 0.0234375 -0.0234375
      vertex -0.173438 0.0234375 -0.0234375
    endloop
  endfacet
  facet normal -1 0 0
    outer loop
      vertex -0.173438 -0.0234375 -0.0234375
      vertex -0.173438 0.0234375 0.0234375
      vertex -0.173438 0.0234375 -0.0234375
    endloop
  endfacet
  facet normal -1 -0 0
    outer loop
      vertex -0.173438 0.0234375 0.0234375
      vertex -0.173438 -0.0234375 -0.0234375
      vertex -0.173438 -0.0234375 0.0234375
    endloop
  endfacet
endsolid OpenSCAD_Model
