solid STL generated by MeshLab
  facet normal  0.000000e+00 -1.000000e+00  0.000000e+00
    outer loop
      vertex   6.970255e+01  0.000000e+00 -1.407348e+01
      vertex   7.731399e+01  0.000000e+00 -1.805391e+01
      vertex   7.211815e+01  0.000000e+00 -1.423682e+01
    endloop
  endfacet
  facet normal  0.000000e+00 -1.000000e+00  0.000000e+00
    outer loop
      vertex   7.731399e+01  0.000000e+00 -1.805391e+01
      vertex   7.530283e+01  0.000000e+00 -1.569948e+01
      vertex   7.211815e+01  0.000000e+00 -1.423682e+01
    endloop
  endfacet
  facet normal  0.000000e+00 -1.000000e+00  0.000000e+00
    outer loop
      vertex   7.683239e+01  0.000000e+00 -2.681924e+01
      vertex   7.795231e+01  0.000000e+00 -2.467271e+01
      vertex   7.731399e+01  0.000000e+00 -1.805391e+01
    endloop
  endfacet
  facet normal  0.000000e+00 -1.000000e+00  0.000000e+00
    outer loop
      vertex   7.731399e+01  0.000000e+00 -1.805391e+01
      vertex   7.795231e+01  0.000000e+00 -2.467271e+01
      vertex   7.840774e+01  0.000000e+00 -2.136099e+01
    endloop
  endfacet
  facet normal  0.000000e+00 -1.000000e+00  0.000000e+00
    outer loop
      vertex   7.731399e+01  0.000000e+00 -1.805391e+01
      vertex   7.424325e+01  0.000000e+00 -2.914929e+01
      vertex   7.683239e+01  0.000000e+00 -2.681924e+01
    endloop
  endfacet
  facet normal  0.000000e+00 -1.000000e+00  0.000000e+00
    outer loop
      vertex   7.731399e+01  0.000000e+00 -1.805391e+01
      vertex   7.102752e+01  0.000000e+00 -3.006254e+01
      vertex   7.424325e+01  0.000000e+00 -2.914929e+01
    endloop
  endfacet
  facet normal  0.000000e+00 -1.000000e+00  0.000000e+00
    outer loop
      vertex   7.731399e+01  0.000000e+00 -1.805391e+01
      vertex   6.776261e+01  0.000000e+00 -2.969476e+01
      vertex   7.102752e+01  0.000000e+00 -3.006254e+01
    endloop
  endfacet
  facet normal  0.000000e+00 -1.000000e+00  0.000000e+00
    outer loop
      vertex   7.731399e+01  0.000000e+00 -1.805391e+01
      vertex   6.417148e+01  0.000000e+00 -2.733039e+01
      vertex   6.776261e+01  0.000000e+00 -2.969476e+01
    endloop
  endfacet
  facet normal  0.000000e+00 -1.000000e+00  0.000000e+00
    outer loop
      vertex   7.731399e+01  0.000000e+00 -1.805391e+01
      vertex   6.224524e+01  0.000000e+00 -2.241662e+01
      vertex   6.417148e+01  0.000000e+00 -2.733039e+01
    endloop
  endfacet
  facet normal  0.000000e+00 -1.000000e+00 -0.000000e+00
    outer loop
      vertex   6.393544e+01  0.000000e+00 -1.710126e+01
      vertex   6.224524e+01  0.000000e+00 -2.241662e+01
      vertex   7.731399e+01  0.000000e+00 -1.805391e+01
    endloop
  endfacet
  facet normal  0.000000e+00 -1.000000e+00 -0.000000e+00
    outer loop
      vertex   6.970255e+01  0.000000e+00 -1.407348e+01
      vertex   6.714262e+01  0.000000e+00 -1.472176e+01
      vertex   7.731399e+01  0.000000e+00 -1.805391e+01
    endloop
  endfacet
  facet normal  0.000000e+00 -1.000000e+00  0.000000e+00
    outer loop
      vertex   7.731399e+01  0.000000e+00 -1.805391e+01
      vertex   6.714262e+01  0.000000e+00 -1.472176e+01
      vertex   6.393544e+01  0.000000e+00 -1.710126e+01
    endloop
  endfacet
  facet normal  2.739789e-01  0.000000e+00 -9.617357e-01
    outer loop
      vertex   7.102752e+01  0.000000e+00 -3.006254e+01
      vertex   7.102752e+01  7.848600e+00 -3.006254e+01
      vertex   7.418732e+01  7.848600e+00 -2.916238e+01
    endloop
  endfacet
  facet normal  2.731915e-01  3.426746e-04 -9.619597e-01
    outer loop
      vertex   7.102752e+01  0.000000e+00 -3.006254e+01
      vertex   7.418732e+01  7.848600e+00 -2.916238e+01
      vertex   7.424325e+01  0.000000e+00 -2.914929e+01
    endloop
  endfacet
  facet normal  6.430881e-01  3.305794e-03 -7.657850e-01
    outer loop
      vertex   7.424325e+01  0.000000e+00 -2.914929e+01
      vertex   7.418732e+01  7.848600e+00 -2.916238e+01
      vertex   7.655856e+01  7.848600e+00 -2.717107e+01
    endloop
  endfacet
  facet normal  6.689028e-01 -9.981071e-03 -7.432828e-01
    outer loop
      vertex   7.424325e+01  0.000000e+00 -2.914929e+01
      vertex   7.655856e+01  7.848600e+00 -2.717107e+01
      vertex   7.683239e+01  0.000000e+00 -2.681924e+01
    endloop
  endfacet
  facet normal  8.658885e-01  7.789278e-03 -5.001765e-01
    outer loop
      vertex   7.683239e+01  0.000000e+00 -2.681924e+01
      vertex   7.655856e+01  7.848600e+00 -2.717107e+01
      vertex   7.787993e+01  7.848600e+00 -2.488355e+01
    endloop
  endfacet
  facet normal  8.865785e-01 -4.249842e-03 -4.625586e-01
    outer loop
      vertex   7.683239e+01  0.000000e+00 -2.681924e+01
      vertex   7.787993e+01  7.848600e+00 -2.488355e+01
      vertex   7.795231e+01  0.000000e+00 -2.467271e+01
    endloop
  endfacet
  facet normal  9.890309e-01  5.155339e-03 -1.476185e-01
    outer loop
      vertex   7.795231e+01  0.000000e+00 -2.467271e+01
      vertex   7.787993e+01  7.848600e+00 -2.488355e+01
      vertex   7.839726e+01  7.848600e+00 -2.141746e+01
    endloop
  endfacet
  facet normal  9.906761e-01  3.419432e-04 -1.362380e-01
    outer loop
      vertex   7.795231e+01  0.000000e+00 -2.467271e+01
      vertex   7.839726e+01  7.848600e+00 -2.141746e+01
      vertex   7.840774e+01  0.000000e+00 -2.136099e+01
    endloop
  endfacet
  facet normal  9.555562e-01  3.396426e-03  2.947896e-01
    outer loop
      vertex   7.840774e+01  0.000000e+00 -2.136099e+01
      vertex   7.839726e+01  7.848600e+00 -2.141746e+01
      vertex   7.742009e+01  7.848600e+00 -1.824997e+01
    endloop
  endfacet
  facet normal  9.494103e-01 -4.991133e-03  3.139989e-01
    outer loop
      vertex   7.840774e+01  0.000000e+00 -2.136099e+01
      vertex   7.742009e+01  7.848600e+00 -1.824997e+01
      vertex   7.731399e+01  0.000000e+00 -1.805391e+01
    endloop
  endfacet
  facet normal  7.983484e-01  4.249661e-03  6.021809e-01
    outer loop
      vertex   7.731399e+01  0.000000e+00 -1.805391e+01
      vertex   7.742009e+01  7.848600e+00 -1.824997e+01
      vertex   7.596212e+01  7.848600e+00 -1.631705e+01
    endloop
  endfacet
  facet normal  7.602983e-01 -1.276440e-02  6.494487e-01
    outer loop
      vertex   7.731399e+01  0.000000e+00 -1.805391e+01
      vertex   7.596212e+01  7.848600e+00 -1.631705e+01
      vertex   7.530283e+01  0.000000e+00 -1.569948e+01
    endloop
  endfacet
  facet normal  5.699126e-01  1.676879e-02  8.215342e-01
    outer loop
      vertex   7.530283e+01  0.000000e+00 -1.569948e+01
      vertex   7.596212e+01  7.848600e+00 -1.631705e+01
      vertex   7.379159e+01  7.848600e+00 -1.481131e+01
    endloop
  endfacet
  facet normal  4.172616e-01 -2.246627e-02  9.085087e-01
    outer loop
      vertex   7.530283e+01  0.000000e+00 -1.569948e+01
      vertex   7.379159e+01  7.848600e+00 -1.481131e+01
      vertex   7.211815e+01  0.000000e+00 -1.423682e+01
    endloop
  endfacet
  facet normal  2.723041e-01  1.236589e-02  9.621318e-01
    outer loop
      vertex   7.211815e+01  0.000000e+00 -1.423682e+01
      vertex   7.379159e+01  7.848600e+00 -1.481131e+01
      vertex   7.124966e+01  7.848600e+00 -1.409189e+01
    endloop
  endfacet
  facet normal  6.745848e-02 -1.095732e-02  9.976619e-01
    outer loop
      vertex   7.211815e+01  0.000000e+00 -1.423682e+01
      vertex   7.124966e+01  7.848600e+00 -1.409189e+01
      vertex   6.970255e+01  0.000000e+00 -1.407348e+01
    endloop
  endfacet
  facet normal -5.485488e-02  1.315489e-02  9.984077e-01
    outer loop
      vertex   6.970255e+01  0.000000e+00 -1.407348e+01
      vertex   7.124966e+01  7.848600e+00 -1.409189e+01
      vertex   6.861192e+01  7.848600e+00 -1.423682e+01
    endloop
  endfacet
  facet normal -2.454685e-01 -1.393814e-02  9.693044e-01
    outer loop
      vertex   6.970255e+01  0.000000e+00 -1.407348e+01
      vertex   6.861192e+01  7.848600e+00 -1.423682e+01
      vertex   6.714262e+01  0.000000e+00 -1.472176e+01
    endloop
  endfacet
  facet normal -4.172673e-01  2.197919e-02  9.085180e-01
    outer loop
      vertex   6.714262e+01  0.000000e+00 -1.472176e+01
      vertex   6.861192e+01  7.848600e+00 -1.423682e+01
      vertex   6.542721e+01  7.848600e+00 -1.569950e+01
    endloop
  endfacet
  facet normal -5.955715e-01 -3.016940e-02  8.027356e-01
    outer loop
      vertex   6.714262e+01  0.000000e+00 -1.472176e+01
      vertex   6.542721e+01  7.848600e+00 -1.569950e+01
      vertex   6.393544e+01  0.000000e+00 -1.710126e+01
    endloop
  endfacet
  facet normal -7.600549e-01  2.850929e-02  6.492332e-01
    outer loop
      vertex   6.393544e+01  0.000000e+00 -1.710126e+01
      vertex   6.542721e+01  7.848600e+00 -1.569950e+01
      vertex   6.341603e+01  7.848600e+00 -1.805397e+01
    endloop
  endfacet
  facet normal -9.587222e-01 -2.911185e-02  2.828502e-01
    outer loop
      vertex   6.393544e+01  0.000000e+00 -1.710126e+01
      vertex   6.341603e+01  7.848600e+00 -1.805397e+01
      vertex   6.224054e+01  7.848600e+00 -2.203832e+01
    endloop
  endfacet
  facet normal -9.528704e-01 -1.517456e-02  3.029978e-01
    outer loop
      vertex   6.393544e+01  0.000000e+00 -1.710126e+01
      vertex   6.224054e+01  7.848600e+00 -2.203832e+01
      vertex   6.224524e+01  0.000000e+00 -2.241662e+01
    endloop
  endfacet
  facet normal -9.531838e-01  1.398933e-02 -3.020676e-01
    outer loop
      vertex   6.224524e+01  0.000000e+00 -2.241662e+01
      vertex   6.224054e+01  7.848600e+00 -2.203832e+01
      vertex   6.374327e+01  7.848600e+00 -2.678022e+01
    endloop
  endfacet
  facet normal -9.307241e-01 -2.520415e-02 -3.648526e-01
    outer loop
      vertex   6.224524e+01  0.000000e+00 -2.241662e+01
      vertex   6.374327e+01  7.848600e+00 -2.678022e+01
      vertex   6.417148e+01  0.000000e+00 -2.733039e+01
    endloop
  endfacet
  facet normal -5.918973e-01  2.418060e-02 -8.056506e-01
    outer loop
      vertex   6.417148e+01  0.000000e+00 -2.733039e+01
      vertex   6.374327e+01  7.848600e+00 -2.678022e+01
      vertex   6.770530e+01  7.848600e+00 -2.969106e+01
    endloop
  endfacet
  facet normal -5.499032e-01 -3.621140e-03 -8.352206e-01
    outer loop
      vertex   6.417148e+01  0.000000e+00 -2.733039e+01
      vertex   6.770530e+01  7.848600e+00 -2.969106e+01
      vertex   6.776261e+01  0.000000e+00 -2.969476e+01
    endloop
  endfacet
  facet normal -1.111245e-01 -3.421943e-04 -9.938064e-01
    outer loop
      vertex   6.776261e+01  0.000000e+00 -2.969476e+01
      vertex   6.770530e+01  7.848600e+00 -2.969106e+01
      vertex   7.102752e+01  7.848600e+00 -3.006254e+01
    endloop
  endfacet
  facet normal -1.119369e-01  0.000000e+00 -9.937154e-01
    outer loop
      vertex   6.776261e+01  0.000000e+00 -2.969476e+01
      vertex   7.102752e+01  7.848600e+00 -3.006254e+01
      vertex   7.102752e+01  0.000000e+00 -3.006254e+01
    endloop
  endfacet
  facet normal  0.000000e+00  1.000000e+00 -0.000000e+00
    outer loop
      vertex   7.102752e+01  7.848600e+00 -3.006254e+01
      vertex   6.770530e+01  7.848600e+00 -2.969106e+01
      vertex   7.742009e+01  7.848600e+00 -1.824997e+01
    endloop
  endfacet
  facet normal  0.000000e+00  1.000000e+00  0.000000e+00
    outer loop
      vertex   7.742009e+01  7.848600e+00 -1.824997e+01
      vertex   7.418732e+01  7.848600e+00 -2.916238e+01
      vertex   7.102752e+01  7.848600e+00 -3.006254e+01
    endloop
  endfacet
  facet normal  0.000000e+00  1.000000e+00  0.000000e+00
    outer loop
      vertex   7.787993e+01  7.848600e+00 -2.488355e+01
      vertex   7.655856e+01  7.848600e+00 -2.717107e+01
      vertex   7.742009e+01  7.848600e+00 -1.824997e+01
    endloop
  endfacet
  facet normal  0.000000e+00  1.000000e+00  0.000000e+00
    outer loop
      vertex   7.742009e+01  7.848600e+00 -1.824997e+01
      vertex   7.655856e+01  7.848600e+00 -2.717107e+01
      vertex   7.418732e+01  7.848600e+00 -2.916238e+01
    endloop
  endfacet
  facet normal  0.000000e+00  1.000000e+00  0.000000e+00
    outer loop
      vertex   7.742009e+01  7.848600e+00 -1.824997e+01
      vertex   7.839726e+01  7.848600e+00 -2.141746e+01
      vertex   7.787993e+01  7.848600e+00 -2.488355e+01
    endloop
  endfacet
  facet normal -8.197789e-07  1.000000e+00 -8.650381e-07
    outer loop
      vertex   7.379159e+01  7.848600e+00 -1.481131e+01
      vertex   7.596212e+01  7.848600e+00 -1.631705e+01
      vertex   7.742009e+01  7.848600e+00 -1.824997e+01
    endloop
  endfacet
  facet normal  0.000000e+00  1.000000e+00  0.000000e+00
    outer loop
      vertex   7.742009e+01  7.848600e+00 -1.824997e+01
      vertex   7.124966e+01  7.848600e+00 -1.409189e+01
      vertex   7.379159e+01  7.848600e+00 -1.481131e+01
    endloop
  endfacet
  facet normal -0.000000e+00  1.000000e+00  0.000000e+00
    outer loop
      vertex   6.542721e+01  7.848600e+00 -1.569950e+01
      vertex   6.861192e+01  7.848600e+00 -1.423682e+01
      vertex   7.742009e+01  7.848600e+00 -1.824997e+01
    endloop
  endfacet
  facet normal  0.000000e+00  1.000000e+00  0.000000e+00
    outer loop
      vertex   7.742009e+01  7.848600e+00 -1.824997e+01
      vertex   6.861192e+01  7.848600e+00 -1.423682e+01
      vertex   7.124966e+01  7.848600e+00 -1.409189e+01
    endloop
  endfacet
  facet normal -0.000000e+00  1.000000e+00  0.000000e+00
    outer loop
      vertex   6.341603e+01  7.848600e+00 -1.805397e+01
      vertex   6.542721e+01  7.848600e+00 -1.569950e+01
      vertex   7.742009e+01  7.848600e+00 -1.824997e+01
    endloop
  endfacet
  facet normal  0.000000e+00  1.000000e+00  0.000000e+00
    outer loop
      vertex   7.742009e+01  7.848600e+00 -1.824997e+01
      vertex   6.224054e+01  7.848600e+00 -2.203832e+01
      vertex   6.341603e+01  7.848600e+00 -1.805397e+01
    endloop
  endfacet
  facet normal  0.000000e+00  1.000000e+00 -0.000000e+00
    outer loop
      vertex   6.374327e+01  7.848600e+00 -2.678022e+01
      vertex   6.224054e+01  7.848600e+00 -2.203832e+01
      vertex   7.742009e+01  7.848600e+00 -1.824997e+01
    endloop
  endfacet
  facet normal  0.000000e+00  1.000000e+00  0.000000e+00
    outer loop
      vertex   7.742009e+01  7.848600e+00 -1.824997e+01
      vertex   6.770530e+01  7.848600e+00 -2.969106e+01
      vertex   6.374327e+01  7.848600e+00 -2.678022e+01
    endloop
  endfacet
  facet normal  0.000000e+00 -1.000000e+00  0.000000e+00
    outer loop
      vertex   8.024226e+01 -0.000000e+00  1.877505e+01
      vertex   7.905779e+01 -0.000000e+00  2.088668e+01
      vertex   7.375143e+01 -0.000000e+00  2.395470e+01
    endloop
  endfacet
  facet normal  0.000000e+00 -1.000000e+00  0.000000e+00
    outer loop
      vertex   7.375143e+01 -0.000000e+00  2.395470e+01
      vertex   7.905779e+01 -0.000000e+00  2.088668e+01
      vertex   7.711497e+01 -0.000000e+00  2.267518e+01
    endloop
  endfacet
  facet normal  0.000000e+00 -1.000000e+00  0.000000e+00
    outer loop
      vertex   7.375143e+01 -0.000000e+00  2.395470e+01
      vertex   8.074928e+01 -0.000000e+00  1.595953e+01
      vertex   8.024226e+01 -0.000000e+00  1.877505e+01
    endloop
  endfacet
  facet normal  0.000000e+00 -1.000000e+00  0.000000e+00
    outer loop
      vertex   7.375143e+01 -0.000000e+00  2.395470e+01
      vertex   7.988676e+01 -0.000000e+00  1.211881e+01
      vertex   8.074928e+01 -0.000000e+00  1.595953e+01
    endloop
  endfacet
  facet normal  0.000000e+00 -1.000000e+00  0.000000e+00
    outer loop
      vertex   7.375143e+01 -0.000000e+00  2.395470e+01
      vertex   7.683184e+01  0.000000e+00  9.003638e+00
      vertex   7.988676e+01 -0.000000e+00  1.211881e+01
    endloop
  endfacet
  facet normal  0.000000e+00 -1.000000e+00 -0.000000e+00
    outer loop
      vertex   7.375143e+01 -0.000000e+00  2.395470e+01
      vertex   7.302648e+01 -0.000000e+00  7.888484e+00
      vertex   7.683184e+01  0.000000e+00  9.003638e+00
    endloop
  endfacet
  facet normal  0.000000e+00 -1.000000e+00  0.000000e+00
    outer loop
      vertex   7.375143e+01 -0.000000e+00  2.395470e+01
      vertex   6.916269e+01 -0.000000e+00  8.730083e+00
      vertex   7.302648e+01 -0.000000e+00  7.888484e+00
    endloop
  endfacet
  facet normal  0.000000e+00 -1.000000e+00  0.000000e+00
    outer loop
      vertex   7.375143e+01 -0.000000e+00  2.395470e+01
      vertex   6.559623e+01 -0.000000e+00  1.206656e+01
      vertex   6.916269e+01 -0.000000e+00  8.730083e+00
    endloop
  endfacet
  facet normal  0.000000e+00 -1.000000e+00  0.000000e+00
    outer loop
      vertex   6.465916e+01 -0.000000e+00  1.632788e+01
      vertex   6.559623e+01 -0.000000e+00  1.206656e+01
      vertex   7.375143e+01 -0.000000e+00  2.395470e+01
    endloop
  endfacet
  facet normal  0.000000e+00 -1.000000e+00 -0.000000e+00
    outer loop
      vertex   6.581696e+01 -0.000000e+00  2.010900e+01
      vertex   6.465916e+01 -0.000000e+00  1.632788e+01
      vertex   7.375143e+01 -0.000000e+00  2.395470e+01
    endloop
  endfacet
  facet normal  0.000000e+00 -1.000000e+00 -0.000000e+00
    outer loop
      vertex   6.815311e+01 -0.000000e+00  2.255327e+01
      vertex   6.581696e+01 -0.000000e+00  2.010900e+01
      vertex   7.375143e+01 -0.000000e+00  2.395470e+01
    endloop
  endfacet
  facet normal  0.000000e+00 -1.000000e+00  0.000000e+00
    outer loop
      vertex   7.375143e+01 -0.000000e+00  2.395470e+01
      vertex   7.075805e+01 -0.000000e+00  2.373597e+01
      vertex   6.815311e+01 -0.000000e+00  2.255327e+01
    endloop
  endfacet
  facet normal  2.041271e-01  8.509319e-03 -9.789073e-01
    outer loop
      vertex   7.302648e+01 -0.000000e+00  7.888484e+00
      vertex   7.268691e+01  7.848600e+00  7.885901e+00
      vertex   7.574557e+01  7.848600e+00  8.523708e+00
    endloop
  endfacet
  facet normal  2.811668e-01 -1.975480e-02 -9.594556e-01
    outer loop
      vertex   7.302648e+01 -0.000000e+00  7.888484e+00
      vertex   7.574557e+01  7.848600e+00  8.523708e+00
      vertex   7.683184e+01  0.000000e+00  9.003638e+00
    endloop
  endfacet
  facet normal  5.561741e-01  2.618322e-02 -8.306533e-01
    outer loop
      vertex   7.683184e+01  0.000000e+00  9.003638e+00
      vertex   7.574557e+01  7.848600e+00  8.523708e+00
      vertex   7.863992e+01  7.848600e+00  1.046165e+01
    endloop
  endfacet
  facet normal  7.135555e-01 -3.438940e-02 -6.997543e-01
    outer loop
      vertex   7.683184e+01  0.000000e+00  9.003638e+00
      vertex   7.863992e+01  7.848600e+00  1.046165e+01
      vertex   7.988676e+01 -0.000000e+00  1.211881e+01
    endloop
  endfacet
  facet normal  8.813302e-01  4.061542e-02 -4.707521e-01
    outer loop
      vertex   7.988676e+01 -0.000000e+00  1.211881e+01
      vertex   7.863992e+01  7.848600e+00  1.046165e+01
      vertex   8.067903e+01  7.848600e+00  1.427924e+01
    endloop
  endfacet
  facet normal  9.749892e-01 -3.814942e-02 -2.189536e-01
    outer loop
      vertex   7.988676e+01 -0.000000e+00  1.211881e+01
      vertex   8.067903e+01  7.848600e+00  1.427924e+01
      vertex   8.074928e+01 -0.000000e+00  1.595953e+01
    endloop
  endfacet
  facet normal  9.971484e-01  2.422546e-02  7.147107e-02
    outer loop
      vertex   8.074928e+01 -0.000000e+00  1.595953e+01
      vertex   8.067903e+01  7.848600e+00  1.427924e+01
      vertex   8.038702e+01  7.848600e+00  1.835336e+01
    endloop
  endfacet
  facet normal  9.841329e-01 -8.629676e-03  1.772227e-01
    outer loop
      vertex   8.074928e+01 -0.000000e+00  1.595953e+01
      vertex   8.038702e+01  7.848600e+00  1.835336e+01
      vertex   8.024226e+01 -0.000000e+00  1.877505e+01
    endloop
  endfacet
  facet normal  8.923299e-01  7.789947e-03  4.513166e-01
    outer loop
      vertex   8.024226e+01 -0.000000e+00  1.877505e+01
      vertex   8.038702e+01  7.848600e+00  1.835336e+01
      vertex   7.919470e+01  7.848600e+00  2.071077e+01
    endloop
  endfacet
  facet normal  8.721544e-01 -4.249208e-03  4.892122e-01
    outer loop
      vertex   8.024226e+01 -0.000000e+00  1.877505e+01
      vertex   7.919470e+01  7.848600e+00  2.071077e+01
      vertex   7.905779e+01 -0.000000e+00  2.088668e+01
    endloop
  endfacet
  facet normal  6.974537e-01  3.895018e-03  7.166194e-01
    outer loop
      vertex   7.905779e+01 -0.000000e+00  2.088668e+01
      vertex   7.919470e+01  7.848600e+00  2.071077e+01
      vertex   7.730159e+01  7.848600e+00  2.255326e+01
    endloop
  endfacet
  facet normal  6.772748e-01 -4.675026e-03  7.357153e-01
    outer loop
      vertex   7.905779e+01 -0.000000e+00  2.088668e+01
      vertex   7.730159e+01  7.848600e+00  2.255326e+01
      vertex   7.711497e+01 -0.000000e+00  2.267518e+01
    endloop
  endfacet
  facet normal  4.134110e-01  4.314829e-03  9.105343e-01
    outer loop
      vertex   7.711497e+01 -0.000000e+00  2.267518e+01
      vertex   7.730159e+01  7.848600e+00  2.255326e+01
      vertex   7.469666e+01  7.848600e+00  2.373597e+01
    endloop
  endfacet
  facet normal  3.555025e-01 -1.677042e-02  9.345249e-01
    outer loop
      vertex   7.711497e+01 -0.000000e+00  2.267518e+01
      vertex   7.469666e+01  7.848600e+00  2.373597e+01
      vertex   7.375143e+01 -0.000000e+00  2.395470e+01
    endloop
  endfacet
  facet normal  9.766670e-02  1.596961e-02  9.950911e-01
    outer loop
      vertex   7.375143e+01 -0.000000e+00  2.395470e+01
      vertex   7.469666e+01  7.848600e+00  2.373597e+01
      vertex   7.228711e+01  7.848600e+00  2.397247e+01
    endloop
  endfacet
  facet normal -7.286815e-02 -1.585197e-02  9.972156e-01
    outer loop
      vertex   7.375143e+01 -0.000000e+00  2.395470e+01
      vertex   7.228711e+01  7.848600e+00  2.397247e+01
      vertex   7.075805e+01 -0.000000e+00  2.373597e+01
    endloop
  endfacet
  facet normal -2.184409e-01  1.315490e-02  9.757615e-01
    outer loop
      vertex   7.075805e+01 -0.000000e+00  2.373597e+01
      vertex   7.228711e+01  7.848600e+00  2.397247e+01
      vertex   6.970915e+01  7.848600e+00  2.339535e+01
    endloop
  endfacet
  facet normal -4.133584e-01 -1.572935e-02  9.104326e-01
    outer loop
      vertex   7.075805e+01 -0.000000e+00  2.373597e+01
      vertex   6.970915e+01  7.848600e+00  2.339535e+01
      vertex   6.815311e+01 -0.000000e+00  2.255327e+01
    endloop
  endfacet
  facet normal -5.234373e-01  1.236656e-02  8.519744e-01
    outer loop
      vertex   6.815311e+01 -0.000000e+00  2.255327e+01
      vertex   6.970915e+01  7.848600e+00  2.339535e+01
      vertex   6.745825e+01  7.848600e+00  2.201244e+01
    endloop
  endfacet
  facet normal -7.228171e-01 -1.638835e-02  6.908451e-01
    outer loop
      vertex   6.815311e+01 -0.000000e+00  2.255327e+01
      vertex   6.745825e+01  7.848600e+00  2.201244e+01
      vertex   6.581696e+01 -0.000000e+00  2.010900e+01
    endloop
  endfacet
  facet normal -7.993933e-01  2.155462e-02  6.004213e-01
    outer loop
      vertex   6.581696e+01 -0.000000e+00  2.010900e+01
      vertex   6.745825e+01  7.848600e+00  2.201244e+01
      vertex   6.535361e+01  7.848600e+00  1.921034e+01
    endloop
  endfacet
  facet normal -9.559267e-01 -2.291957e-02  2.927097e-01
    outer loop
      vertex   6.581696e+01 -0.000000e+00  2.010900e+01
      vertex   6.535361e+01  7.848600e+00  1.921034e+01
      vertex   6.465916e+01 -0.000000e+00  1.632788e+01
    endloop
  endfacet
  facet normal -9.777991e-01  9.640232e-03  2.093226e-01
    outer loop
      vertex   6.465916e+01 -0.000000e+00  1.632788e+01
      vertex   6.535361e+01  7.848600e+00  1.921034e+01
      vertex   6.470541e+01  7.848600e+00  1.618246e+01
    endloop
  endfacet
  facet normal -9.825872e-01  2.347790e-03 -1.857873e-01
    outer loop
      vertex   6.465916e+01 -0.000000e+00  1.632788e+01
      vertex   6.470541e+01  7.848600e+00  1.618246e+01
      vertex   6.542033e+01  7.848600e+00  1.240145e+01
    endloop
  endfacet
  facet normal -9.765859e-01 -1.272401e-02 -2.147511e-01
    outer loop
      vertex   6.465916e+01 -0.000000e+00  1.632788e+01
      vertex   6.542033e+01  7.848600e+00  1.240145e+01
      vertex   6.559623e+01 -0.000000e+00  1.206656e+01
    endloop
  endfacet
  facet normal -7.134553e-01  1.390259e-02 -7.005628e-01
    outer loop
      vertex   6.559623e+01 -0.000000e+00  1.206656e+01
      vertex   6.542033e+01  7.848600e+00  1.240145e+01
      vertex   6.887872e+01  7.848600e+00  8.879409e+00
    endloop
  endfacet
  facet normal -6.831288e-01 -1.082299e-02 -7.302177e-01
    outer loop
      vertex   6.559623e+01 -0.000000e+00  1.206656e+01
      vertex   6.887872e+01  7.848600e+00  8.879409e+00
      vertex   6.916269e+01 -0.000000e+00  8.730083e+00
    endloop
  endfacet
  facet normal -2.524270e-01  9.275828e-03 -9.675715e-01
    outer loop
      vertex   6.916269e+01 -0.000000e+00  8.730083e+00
      vertex   6.887872e+01  7.848600e+00  8.879409e+00
      vertex   7.268691e+01  7.848600e+00  7.885901e+00
    endloop
  endfacet
  facet normal -2.128170e-01 -9.529126e-03 -9.770456e-01
    outer loop
      vertex   6.916269e+01 -0.000000e+00  8.730083e+00
      vertex   7.268691e+01  7.848600e+00  7.885901e+00
      vertex   7.302648e+01 -0.000000e+00  7.888484e+00
    endloop
  endfacet
  facet normal  0.000000e+00  1.000000e+00  0.000000e+00
    outer loop
      vertex   7.863992e+01  7.848600e+00  1.046165e+01
      vertex   7.574557e+01  7.848600e+00  8.523708e+00
      vertex   7.469666e+01  7.848600e+00  2.373597e+01
    endloop
  endfacet
  facet normal  0.000000e+00  1.000000e+00  0.000000e+00
    outer loop
      vertex   7.469666e+01  7.848600e+00  2.373597e+01
      vertex   7.574557e+01  7.848600e+00  8.523708e+00
      vertex   7.268691e+01  7.848600e+00  7.885901e+00
    endloop
  endfacet
  facet normal  0.000000e+00  1.000000e+00  0.000000e+00
    outer loop
      vertex   8.067903e+01  7.848600e+00  1.427924e+01
      vertex   7.863992e+01  7.848600e+00  1.046165e+01
      vertex   7.469666e+01  7.848600e+00  2.373597e+01
    endloop
  endfacet
  facet normal  0.000000e+00  1.000000e+00  0.000000e+00
    outer loop
      vertex   7.919470e+01  7.848600e+00  2.071077e+01
      vertex   8.038702e+01  7.848600e+00  1.835336e+01
      vertex   7.469666e+01  7.848600e+00  2.373597e+01
    endloop
  endfacet
  facet normal  0.000000e+00  1.000000e+00  0.000000e+00
    outer loop
      vertex   7.469666e+01  7.848600e+00  2.373597e+01
      vertex   8.038702e+01  7.848600e+00  1.835336e+01
      vertex   8.067903e+01  7.848600e+00  1.427924e+01
    endloop
  endfacet
  facet normal  0.000000e+00  1.000000e+00  0.000000e+00
    outer loop
      vertex   7.469666e+01  7.848600e+00  2.373597e+01
      vertex   7.730159e+01  7.848600e+00  2.255326e+01
      vertex   7.919470e+01  7.848600e+00  2.071077e+01
    endloop
  endfacet
  facet normal  0.000000e+00  1.000000e+00  0.000000e+00
    outer loop
      vertex   7.469666e+01  7.848600e+00  2.373597e+01
      vertex   6.970915e+01  7.848600e+00  2.339535e+01
      vertex   7.228711e+01  7.848600e+00  2.397247e+01
    endloop
  endfacet
  facet normal  0.000000e+00  1.000000e+00  0.000000e+00
    outer loop
      vertex   6.535361e+01  7.848600e+00  1.921034e+01
      vertex   6.745825e+01  7.848600e+00  2.201244e+01
      vertex   7.469666e+01  7.848600e+00  2.373597e+01
    endloop
  endfacet
  facet normal  0.000000e+00  1.000000e+00  0.000000e+00
    outer loop
      vertex   7.469666e+01  7.848600e+00  2.373597e+01
      vertex   6.745825e+01  7.848600e+00  2.201244e+01
      vertex   6.970915e+01  7.848600e+00  2.339535e+01
    endloop
  endfacet
  facet normal  0.000000e+00  1.000000e+00  0.000000e+00
    outer loop
      vertex   6.470541e+01  7.848600e+00  1.618246e+01
      vertex   6.535361e+01  7.848600e+00  1.921034e+01
      vertex   7.469666e+01  7.848600e+00  2.373597e+01
    endloop
  endfacet
  facet normal  0.000000e+00  1.000000e+00  0.000000e+00
    outer loop
      vertex   7.469666e+01  7.848600e+00  2.373597e+01
      vertex   6.542033e+01  7.848600e+00  1.240145e+01
      vertex   6.470541e+01  7.848600e+00  1.618246e+01
    endloop
  endfacet
  facet normal  0.000000e+00  1.000000e+00 -0.000000e+00
    outer loop
      vertex   6.887872e+01  7.848600e+00  8.879409e+00
      vertex   6.542033e+01  7.848600e+00  1.240145e+01
      vertex   7.469666e+01  7.848600e+00  2.373597e+01
    endloop
  endfacet
  facet normal  0.000000e+00  1.000000e+00 -0.000000e+00
    outer loop
      vertex   7.268691e+01  7.848600e+00  7.885901e+00
      vertex   6.887872e+01  7.848600e+00  8.879409e+00
      vertex   7.469666e+01  7.848600e+00  2.373597e+01
    endloop
  endfacet
  facet normal  0.000000e+00 -1.000000e+00 -0.000000e+00
    outer loop
      vertex  -7.992039e+01  0.000000e+00 -2.336205e+01
      vertex  -8.398469e+01  0.000000e+00 -3.722091e+01
      vertex  -7.560915e+01  0.000000e+00 -2.374301e+01
    endloop
  endfacet
  facet normal  0.000000e+00 -1.000000e+00  0.000000e+00
    outer loop
      vertex  -8.398469e+01  0.000000e+00 -3.722091e+01
      vertex  -7.157642e+01  0.000000e+00 -2.714774e+01
      vertex  -7.560915e+01  0.000000e+00 -2.374301e+01
    endloop
  endfacet
  facet normal  0.000000e+00 -1.000000e+00  0.000000e+00
    outer loop
      vertex  -8.398469e+01  0.000000e+00 -3.722091e+01
      vertex  -7.053308e+01  0.000000e+00 -3.262687e+01
      vertex  -7.157642e+01  0.000000e+00 -2.714774e+01
    endloop
  endfacet
  facet normal -0.000000e+00 -1.000000e+00  0.000000e+00
    outer loop
      vertex  -7.258433e+01  0.000000e+00 -3.675730e+01
      vertex  -7.053308e+01  0.000000e+00 -3.262687e+01
      vertex  -8.398469e+01  0.000000e+00 -3.722091e+01
    endloop
  endfacet
  facet normal  0.000000e+00 -1.000000e+00  0.000000e+00
    outer loop
      vertex  -7.589194e+01  0.000000e+00 -3.894197e+01
      vertex  -7.258433e+01  0.000000e+00 -3.675730e+01
      vertex  -8.398469e+01  0.000000e+00 -3.722091e+01
    endloop
  endfacet
  facet normal  0.000000e+00 -1.000000e+00  0.000000e+00
    outer loop
      vertex  -7.899196e+01  0.000000e+00 -3.933184e+01
      vertex  -7.589194e+01  0.000000e+00 -3.894197e+01
      vertex  -8.398469e+01  0.000000e+00 -3.722091e+01
    endloop
  endfacet
  facet normal  0.000000e+00 -1.000000e+00  0.000000e+00
    outer loop
      vertex  -8.398469e+01  0.000000e+00 -3.722091e+01
      vertex  -8.177399e+01  0.000000e+00 -3.866520e+01
      vertex  -7.899196e+01  0.000000e+00 -3.933184e+01
    endloop
  endfacet
  facet normal  0.000000e+00 -1.000000e+00  0.000000e+00
    outer loop
      vertex  -8.398469e+01  0.000000e+00 -3.722091e+01
      vertex  -8.646418e+01  0.000000e+00 -3.263923e+01
      vertex  -8.550063e+01  0.000000e+00 -3.533302e+01
    endloop
  endfacet
  facet normal  0.000000e+00 -1.000000e+00  0.000000e+00
    outer loop
      vertex  -8.398469e+01  0.000000e+00 -3.722091e+01
      vertex  -8.636726e+01  0.000000e+00 -2.935519e+01
      vertex  -8.646418e+01  0.000000e+00 -3.263923e+01
    endloop
  endfacet
  facet normal  0.000000e+00 -1.000000e+00  0.000000e+00
    outer loop
      vertex  -8.398469e+01  0.000000e+00 -3.722091e+01
      vertex  -8.407607e+01  0.000000e+00 -2.536164e+01
      vertex  -8.636726e+01  0.000000e+00 -2.935519e+01
    endloop
  endfacet
  facet normal  0.000000e+00 -1.000000e+00  0.000000e+00
    outer loop
      vertex  -8.398469e+01  0.000000e+00 -3.722091e+01
      vertex  -7.992039e+01  0.000000e+00 -2.336205e+01
      vertex  -8.407607e+01  0.000000e+00 -2.536164e+01
    endloop
  endfacet
  facet normal  1.247785e-01 -8.509159e-03 -9.921481e-01
    outer loop
      vertex  -7.899196e+01  0.000000e+00 -3.933184e+01
      vertex  -7.621394e+01  7.848600e+00 -3.904978e+01
      vertex  -7.589194e+01  0.000000e+00 -3.894197e+01
    endloop
  endfacet
  facet normal  5.565974e-01  1.142482e-02 -8.307039e-01
    outer loop
      vertex  -7.589194e+01  0.000000e+00 -3.894197e+01
      vertex  -7.621394e+01  7.848600e+00 -3.904978e+01
      vertex  -7.215856e+01  7.848600e+00 -3.633255e+01
    endloop
  endfacet
  facet normal  5.510668e-01  1.525837e-02 -8.343216e-01
    outer loop
      vertex  -7.589194e+01  0.000000e+00 -3.894197e+01
      vertex  -7.215856e+01  7.848600e+00 -3.633255e+01
      vertex  -7.258433e+01  0.000000e+00 -3.675730e+01
    endloop
  endfacet
  facet normal  8.953667e-01 -2.450722e-02 -4.446548e-01
    outer loop
      vertex  -7.258433e+01  0.000000e+00 -3.675730e+01
      vertex  -7.215856e+01  7.848600e+00 -3.633255e+01
      vertex  -7.053308e+01  0.000000e+00 -3.262687e+01
    endloop
  endfacet
  facet normal  9.278721e-01  1.627187e-02 -3.725434e-01
    outer loop
      vertex  -7.053308e+01  0.000000e+00 -3.262687e+01
      vertex  -7.215856e+01  7.848600e+00 -3.633255e+01
      vertex  -7.053288e+01  7.848600e+00 -3.228356e+01
    endloop
  endfacet
  facet normal  9.843530e-01 -7.724925e-03  1.760383e-01
    outer loop
      vertex  -7.053308e+01  0.000000e+00 -3.262687e+01
      vertex  -7.053288e+01  7.848600e+00 -3.228356e+01
      vertex  -7.139226e+01  7.848600e+00 -2.747820e+01
    endloop
  endfacet
  facet normal  9.822354e-01 -1.517294e-02  1.870386e-01
    outer loop
      vertex  -7.053308e+01  0.000000e+00 -3.262687e+01
      vertex  -7.139226e+01  7.848600e+00 -2.747820e+01
      vertex  -7.157642e+01  0.000000e+00 -2.714774e+01
    endloop
  endfacet
  facet normal  6.798920e-01  1.491529e-02  7.331606e-01
    outer loop
      vertex  -7.157642e+01  0.000000e+00 -2.714774e+01
      vertex  -7.139226e+01  7.848600e+00 -2.747820e+01
      vertex  -7.526087e+01  7.848600e+00 -2.389066e+01
    endloop
  endfacet
  facet normal  6.450394e-01 -1.425078e-02  7.640164e-01
    outer loop
      vertex  -7.157642e+01  0.000000e+00 -2.714774e+01
      vertex  -7.526087e+01  7.848600e+00 -2.389066e+01
      vertex  -7.560915e+01  0.000000e+00 -2.374301e+01
    endloop
  endfacet
  facet normal  1.333681e-01  1.272443e-02  9.909849e-01
    outer loop
      vertex  -7.560915e+01  0.000000e+00 -2.374301e+01
      vertex  -7.526087e+01  7.848600e+00 -2.389066e+01
      vertex  -7.958501e+01  7.848600e+00 -2.330871e+01
    endloop
  endfacet
  facet normal  8.801587e-02 -1.053066e-02  9.960634e-01
    outer loop
      vertex  -7.560915e+01  0.000000e+00 -2.374301e+01
      vertex  -7.958501e+01  7.848600e+00 -2.330871e+01
      vertex  -7.992039e+01  0.000000e+00 -2.336205e+01
    endloop
  endfacet
  facet normal -3.674828e-01  9.382037e-03  9.299830e-01
    outer loop
      vertex  -7.992039e+01  0.000000e+00 -2.336205e+01
      vertex  -7.958501e+01  7.848600e+00 -2.330871e+01
      vertex  -8.327292e+01  7.848600e+00 -2.476599e+01
    endloop
  endfacet
  facet normal -4.334621e-01 -2.401198e-02  9.008518e-01
    outer loop
      vertex  -7.992039e+01  0.000000e+00 -2.336205e+01
      vertex  -8.327292e+01  7.848600e+00 -2.476599e+01
      vertex  -8.407607e+01  0.000000e+00 -2.536164e+01
    endloop
  endfacet
  facet normal -7.655121e-01  2.955575e-02  6.427422e-01
    outer loop
      vertex  -8.407607e+01  0.000000e+00 -2.536164e+01
      vertex  -8.327292e+01  7.848600e+00 -2.476599e+01
      vertex  -8.582272e+01  7.848600e+00 -2.780282e+01
    endloop
  endfacet
  facet normal -8.667508e-01 -3.821931e-02  4.972749e-01
    outer loop
      vertex  -8.407607e+01  0.000000e+00 -2.536164e+01
      vertex  -8.582272e+01  7.848600e+00 -2.780282e+01
      vertex  -8.636726e+01  0.000000e+00 -2.935519e+01
    endloop
  endfacet
  facet normal -9.791980e-01  2.819471e-02  2.009386e-01
    outer loop
      vertex  -8.636726e+01  0.000000e+00 -2.935519e+01
      vertex  -8.582272e+01  7.848600e+00 -2.780282e+01
      vertex  -8.661983e+01  7.848600e+00 -3.168728e+01
    endloop
  endfacet
  facet normal -9.992912e-01 -2.339500e-02  2.949037e-02
    outer loop
      vertex  -8.636726e+01  0.000000e+00 -2.935519e+01
      vertex  -8.661983e+01  7.848600e+00 -3.168728e+01
      vertex  -8.646418e+01  0.000000e+00 -3.263923e+01
    endloop
  endfacet
  facet normal -9.570712e-01  1.612084e-02 -2.894042e-01
    outer loop
      vertex  -8.646418e+01  0.000000e+00 -3.263923e+01
      vertex  -8.661983e+01  7.848600e+00 -3.168728e+01
      vertex  -8.547209e+01  7.848600e+00 -3.548291e+01
    endloop
  endfacet
  facet normal -9.415728e-01 -3.009092e-03 -3.367960e-01
    outer loop
      vertex  -8.646418e+01  0.000000e+00 -3.263923e+01
      vertex  -8.547209e+01  7.848600e+00 -3.548291e+01
      vertex  -8.550063e+01  0.000000e+00 -3.533302e+01
    endloop
  endfacet
  facet normal -7.797017e-01 -9.122499e-03 -6.260848e-01
    outer loop
      vertex  -8.550063e+01  0.000000e+00 -3.533302e+01
      vertex  -8.547209e+01  7.848600e+00 -3.548291e+01
      vertex  -8.398469e+01  0.000000e+00 -3.722091e+01
    endloop
  endfacet
  facet normal -7.038693e-01  2.381536e-02 -7.099302e-01
    outer loop
      vertex  -8.398469e+01  0.000000e+00 -3.722091e+01
      vertex  -8.547209e+01  7.848600e+00 -3.548291e+01
      vertex  -8.265617e+01  7.848600e+00 -3.827479e+01
    endloop
  endfacet
  facet normal -5.468329e-01 -1.982924e-02 -8.370069e-01
    outer loop
      vertex  -8.398469e+01  0.000000e+00 -3.722091e+01
      vertex  -8.265617e+01  7.848600e+00 -3.827479e+01
      vertex  -8.177399e+01  0.000000e+00 -3.866520e+01
    endloop
  endfacet
  facet normal -3.020278e-01  1.346695e-02 -9.532040e-01
    outer loop
      vertex  -8.177399e+01  0.000000e+00 -3.866520e+01
      vertex  -8.265617e+01  7.848600e+00 -3.827479e+01
      vertex  -7.943628e+01  7.848600e+00 -3.929503e+01
    endloop
  endfacet
  facet normal -2.330199e-01 -8.630181e-03 -9.724337e-01
    outer loop
      vertex  -8.177399e+01  0.000000e+00 -3.866520e+01
      vertex  -7.943628e+01  7.848600e+00 -3.929503e+01
      vertex  -7.899196e+01  0.000000e+00 -3.933184e+01
    endloop
  endfacet
  facet normal  7.588706e-02  8.973090e-03 -9.970761e-01
    outer loop
      vertex  -7.899196e+01  0.000000e+00 -3.933184e+01
      vertex  -7.943628e+01  7.848600e+00 -3.929503e+01
      vertex  -7.621394e+01  7.848600e+00 -3.904978e+01
    endloop
  endfacet
  facet normal  0.000000e+00  1.000000e+00 -0.000000e+00
    outer loop
      vertex  -7.943628e+01  7.848600e+00 -3.929503e+01
      vertex  -8.265617e+01  7.848600e+00 -3.827479e+01
      vertex  -7.621394e+01  7.848600e+00 -3.904978e+01
    endloop
  endfacet
  facet normal  0.000000e+00  1.000000e+00  0.000000e+00
    outer loop
      vertex  -7.215856e+01  7.848600e+00 -3.633255e+01
      vertex  -7.621394e+01  7.848600e+00 -3.904978e+01
      vertex  -8.265617e+01  7.848600e+00 -3.827479e+01
    endloop
  endfacet
  facet normal  0.000000e+00  1.000000e+00  0.000000e+00
    outer loop
      vertex  -8.265617e+01  7.848600e+00 -3.827479e+01
      vertex  -7.053288e+01  7.848600e+00 -3.228356e+01
      vertex  -7.215856e+01  7.848600e+00 -3.633255e+01
    endloop
  endfacet
  facet normal  0.000000e+00  1.000000e+00  0.000000e+00
    outer loop
      vertex  -8.265617e+01  7.848600e+00 -3.827479e+01
      vertex  -7.139226e+01  7.848600e+00 -2.747820e+01
      vertex  -7.053288e+01  7.848600e+00 -3.228356e+01
    endloop
  endfacet
  facet normal  0.000000e+00  1.000000e+00  0.000000e+00
    outer loop
      vertex  -8.265617e+01  7.848600e+00 -3.827479e+01
      vertex  -7.526087e+01  7.848600e+00 -2.389066e+01
      vertex  -7.139226e+01  7.848600e+00 -2.747820e+01
    endloop
  endfacet
  facet normal  0.000000e+00  1.000000e+00  0.000000e+00
    outer loop
      vertex  -7.958501e+01  7.848600e+00 -2.330871e+01
      vertex  -7.526087e+01  7.848600e+00 -2.389066e+01
      vertex  -8.265617e+01  7.848600e+00 -3.827479e+01
    endloop
  endfacet
  facet normal -0.000000e+00  1.000000e+00  0.000000e+00
    outer loop
      vertex  -8.327292e+01  7.848600e+00 -2.476599e+01
      vertex  -7.958501e+01  7.848600e+00 -2.330871e+01
      vertex  -8.265617e+01  7.848600e+00 -3.827479e+01
    endloop
  endfacet
  facet normal -0.000000e+00  1.000000e+00  0.000000e+00
    outer loop
      vertex  -8.582272e+01  7.848600e+00 -2.780282e+01
      vertex  -8.327292e+01  7.848600e+00 -2.476599e+01
      vertex  -8.265617e+01  7.848600e+00 -3.827479e+01
    endloop
  endfacet
  facet normal -0.000000e+00  1.000000e+00  0.000000e+00
    outer loop
      vertex  -8.661983e+01  7.848600e+00 -3.168728e+01
      vertex  -8.582272e+01  7.848600e+00 -2.780282e+01
      vertex  -8.265617e+01  7.848600e+00 -3.827479e+01
    endloop
  endfacet
  facet normal -0.000000e+00  1.000000e+00 -0.000000e+00
    outer loop
      vertex  -8.547209e+01  7.848600e+00 -3.548291e+01
      vertex  -8.661983e+01  7.848600e+00 -3.168728e+01
      vertex  -8.265617e+01  7.848600e+00 -3.827479e+01
    endloop
  endfacet
  facet normal  0.000000e+00 -1.000000e+00  0.000000e+00
    outer loop
      vertex  -7.694667e+01  0.000000e+00  2.856378e+01
      vertex  -7.369575e+01  0.000000e+00  1.275756e+01
      vertex  -7.299706e+01  0.000000e+00  2.836963e+01
    endloop
  endfacet
  facet normal -0.000000e+00 -1.000000e+00  0.000000e+00
    outer loop
      vertex  -6.893000e+01  0.000000e+00  2.566563e+01
      vertex  -7.299706e+01  0.000000e+00  2.836963e+01
      vertex  -7.369575e+01  0.000000e+00  1.275756e+01
    endloop
  endfacet
  facet normal  0.000000e+00 -1.000000e+00  0.000000e+00
    outer loop
      vertex  -7.369575e+01  0.000000e+00  1.275756e+01
      vertex  -6.719866e+01  0.000000e+00  2.068174e+01
      vertex  -6.893000e+01  0.000000e+00  2.566563e+01
    endloop
  endfacet
  facet normal  0.000000e+00 -1.000000e+00  0.000000e+00
    outer loop
      vertex  -7.369575e+01  0.000000e+00  1.275756e+01
      vertex  -6.854208e+01  0.000000e+00  1.627003e+01
      vertex  -6.719866e+01  0.000000e+00  2.068174e+01
    endloop
  endfacet
  facet normal  0.000000e+00 -1.000000e+00  0.000000e+00
    outer loop
      vertex  -7.369575e+01  0.000000e+00  1.275756e+01
      vertex  -7.093561e+01  0.000000e+00  1.393634e+01
      vertex  -6.854208e+01  0.000000e+00  1.627003e+01
    endloop
  endfacet
  facet normal  0.000000e+00 -1.000000e+00  0.000000e+00
    outer loop
      vertex  -8.259424e+01  0.000000e+00  1.713603e+01
      vertex  -8.075627e+01  0.000000e+00  1.475015e+01
      vertex  -7.369575e+01  0.000000e+00  1.275756e+01
    endloop
  endfacet
  facet normal  0.000000e+00 -1.000000e+00  0.000000e+00
    outer loop
      vertex  -7.369575e+01  0.000000e+00  1.275756e+01
      vertex  -8.075627e+01  0.000000e+00  1.475015e+01
      vertex  -7.764928e+01  0.000000e+00  1.293450e+01
    endloop
  endfacet
  facet normal  0.000000e+00 -1.000000e+00  0.000000e+00
    outer loop
      vertex  -8.334171e+01  0.000000e+00  2.196004e+01
      vertex  -8.259424e+01  0.000000e+00  1.713603e+01
      vertex  -7.369575e+01  0.000000e+00  1.275756e+01
    endloop
  endfacet
  facet normal  0.000000e+00 -1.000000e+00  0.000000e+00
    outer loop
      vertex  -7.369575e+01  0.000000e+00  1.275756e+01
      vertex  -8.084755e+01  0.000000e+00  2.660933e+01
      vertex  -8.334171e+01  0.000000e+00  2.196004e+01
    endloop
  endfacet
  facet normal  0.000000e+00 -1.000000e+00  0.000000e+00
    outer loop
      vertex  -7.369575e+01  0.000000e+00  1.275756e+01
      vertex  -7.694667e+01  0.000000e+00  2.856378e+01
      vertex  -8.084755e+01  0.000000e+00  2.660933e+01
    endloop
  endfacet
  facet normal  3.471286e-01  1.244955e-02 -9.377350e-01
    outer loop
      vertex  -7.369575e+01  0.000000e+00  1.275756e+01
      vertex  -7.428980e+01  7.848600e+00  1.264185e+01
      vertex  -7.112222e+01  7.848600e+00  1.381442e+01
    endloop
  endfacet
  facet normal  3.927501e-01 -4.947301e-03 -9.196320e-01
    outer loop
      vertex  -7.369575e+01  0.000000e+00  1.275756e+01
      vertex  -7.112222e+01  7.848600e+00  1.381442e+01
      vertex  -7.093561e+01  0.000000e+00  1.393634e+01
    endloop
  endfacet
  facet normal  6.723236e-01  4.486367e-03 -7.402439e-01
    outer loop
      vertex  -7.093561e+01  0.000000e+00  1.393634e+01
      vertex  -7.112222e+01  7.848600e+00  1.381442e+01
      vertex  -6.872996e+01  7.848600e+00  1.598718e+01
    endloop
  endfacet
  facet normal  6.980719e-01 -9.092278e-03 -7.159700e-01
    outer loop
      vertex  -7.093561e+01  0.000000e+00  1.393634e+01
      vertex  -6.872996e+01  7.848600e+00  1.598718e+01
      vertex  -6.854208e+01  0.000000e+00  1.627003e+01
    endloop
  endfacet
  facet normal  9.427178e-01  1.055069e-02 -3.334244e-01
    outer loop
      vertex  -6.854208e+01  0.000000e+00  1.627003e+01
      vertex  -6.872996e+01  7.848600e+00  1.598718e+01
      vertex  -6.720335e+01  7.848599e+00  2.030347e+01
    endloop
  endfacet
  facet normal  9.565436e-01 -1.346667e-02 -2.912782e-01
    outer loop
      vertex  -6.854208e+01  0.000000e+00  1.627003e+01
      vertex  -6.720335e+01  7.848599e+00  2.030347e+01
      vertex  -6.719866e+01  0.000000e+00  2.068174e+01
    endloop
  endfacet
  facet normal  9.528704e-01  1.517301e-02  3.029979e-01
    outer loop
      vertex  -6.719866e+01  0.000000e+00  2.068174e+01
      vertex  -6.720335e+01  7.848599e+00  2.030347e+01
      vertex  -6.889354e+01  7.848600e+00  2.561878e+01
    endloop
  endfacet
  facet normal  9.446226e-01 -2.429457e-03  3.281497e-01
    outer loop
      vertex  -6.719866e+01  0.000000e+00  2.068174e+01
      vertex  -6.889354e+01  7.848600e+00  2.561878e+01
      vertex  -6.893000e+01  0.000000e+00  2.566563e+01
    endloop
  endfacet
  facet normal  5.889933e-01  2.087772e-03  8.081353e-01
    outer loop
      vertex  -6.893000e+01  0.000000e+00  2.566563e+01
      vertex  -6.889354e+01  7.848600e+00  2.561878e+01
      vertex  -7.241958e+01  7.848600e+00  2.818866e+01
    endloop
  endfacet
  facet normal  5.535256e-01 -2.153127e-02  8.325539e-01
    outer loop
      vertex  -6.893000e+01  0.000000e+00  2.566563e+01
      vertex  -7.241958e+01  7.848600e+00  2.818866e+01
      vertex  -7.299706e+01  0.000000e+00  2.836963e+01
    endloop
  endfacet
  facet normal  1.410121e-01  1.244922e-02  9.899296e-01
    outer loop
      vertex  -7.299706e+01  0.000000e+00  2.836963e+01
      vertex  -7.241958e+01  7.848600e+00  2.818866e+01
      vertex  -7.576346e+01  7.848600e+00  2.866499e+01
    endloop
  endfacet
  facet normal  4.908764e-02 -2.027723e-02  9.985887e-01
    outer loop
      vertex  -7.299706e+01  0.000000e+00  2.836963e+01
      vertex  -7.576346e+01  7.848600e+00  2.866499e+01
      vertex  -7.694667e+01  0.000000e+00  2.856378e+01
    endloop
  endfacet
  facet normal -2.389123e-01  2.349897e-02  9.707567e-01
    outer loop
      vertex  -7.694667e+01  0.000000e+00  2.856378e+01
      vertex  -7.576346e+01  7.848600e+00  2.866499e+01
      vertex  -7.890145e+01  7.848600e+00  2.789270e+01
    endloop
  endfacet
  facet normal -4.476715e-01 -3.509975e-02  8.935090e-01
    outer loop
      vertex  -7.694667e+01  0.000000e+00  2.856378e+01
      vertex  -7.890145e+01  7.848600e+00  2.789270e+01
      vertex  -8.084755e+01  0.000000e+00  2.660933e+01
    endloop
  endfacet
  facet normal -6.615806e-01  4.161547e-02  7.487183e-01
    outer loop
      vertex  -8.084755e+01  0.000000e+00  2.660933e+01
      vertex  -7.890145e+01  7.848600e+00  2.789270e+01
      vertex  -8.206001e+01  7.848600e+00  2.510174e+01
    endloop
  endfacet
  facet normal -8.803023e-01 -4.527881e-02  4.722476e-01
    outer loop
      vertex  -8.084755e+01  0.000000e+00  2.660933e+01
      vertex  -8.206001e+01  7.848600e+00  2.510174e+01
      vertex  -8.334171e+01  0.000000e+00  2.196004e+01
    endloop
  endfacet
  facet normal -9.439437e-01  2.231358e-02  3.293514e-01
    outer loop
      vertex  -8.334171e+01  0.000000e+00  2.196004e+01
      vertex  -8.206001e+01  7.848600e+00  2.510174e+01
      vertex  -8.336586e+01  7.848600e+00  2.135909e+01
    endloop
  endfacet
  facet normal -9.890638e-01 -1.428273e-02 -1.467950e-01
    outer loop
      vertex  -8.334171e+01  0.000000e+00  2.196004e+01
      vertex  -8.336586e+01  7.848600e+00  2.135909e+01
      vertex  -8.282228e+01  7.848599e+00  1.769661e+01
    endloop
  endfacet
  facet normal -9.880513e-01 -1.777319e-02 -1.530972e-01
    outer loop
      vertex  -8.334171e+01  0.000000e+00  2.196004e+01
      vertex  -8.282228e+01  7.848599e+00  1.769661e+01
      vertex  -8.259424e+01  0.000000e+00  1.713603e+01
    endloop
  endfacet
  facet normal -8.266706e-01  1.615372e-02 -5.624543e-01
    outer loop
      vertex  -8.259424e+01  0.000000e+00  1.713603e+01
      vertex  -8.282228e+01  7.848599e+00  1.769661e+01
      vertex  -8.092028e+01  7.848600e+00  1.490113e+01
    endloop
  endfacet
  facet normal -7.921848e-01 -4.814850e-03 -6.102623e-01
    outer loop
      vertex  -8.259424e+01  0.000000e+00  1.713603e+01
      vertex  -8.092028e+01  7.848600e+00  1.490113e+01
      vertex  -8.075627e+01  0.000000e+00  1.475015e+01
    endloop
  endfacet
  facet normal -5.525490e-01  4.486352e-03 -8.334683e-01
    outer loop
      vertex  -8.075627e+01  0.000000e+00  1.475015e+01
      vertex  -8.092028e+01  7.848600e+00  1.490113e+01
      vertex  -7.822678e+01  7.848600e+00  1.311547e+01
    endloop
  endfacet
  facet normal -5.044683e-01 -1.721404e-02 -8.632586e-01
    outer loop
      vertex  -8.075627e+01  0.000000e+00  1.475015e+01
      vertex  -7.822678e+01  7.848600e+00  1.311547e+01
      vertex  -7.764928e+01  0.000000e+00  1.293450e+01
    endloop
  endfacet
  facet normal -1.194266e-01  1.410291e-02 -9.927429e-01
    outer loop
      vertex  -7.764928e+01  0.000000e+00  1.293450e+01
      vertex  -7.822678e+01  7.848600e+00  1.311547e+01
      vertex  -7.428980e+01  7.848600e+00  1.264185e+01
    endloop
  endfacet
  facet normal -4.470285e-02 -1.810867e-02 -9.988362e-01
    outer loop
      vertex  -7.764928e+01  0.000000e+00  1.293450e+01
      vertex  -7.428980e+01  7.848600e+00  1.264185e+01
      vertex  -7.369575e+01  0.000000e+00  1.275756e+01
    endloop
  endfacet
  facet normal  0.000000e+00  1.000000e+00  0.000000e+00
    outer loop
      vertex  -7.428980e+01  7.848600e+00  1.264185e+01
      vertex  -6.872996e+01  7.848600e+00  1.598718e+01
      vertex  -7.112222e+01  7.848600e+00  1.381442e+01
    endloop
  endfacet
  facet normal -8.444152e-08  1.000000e+00  1.403395e-07
    outer loop
      vertex  -7.428980e+01  7.848600e+00  1.264185e+01
      vertex  -6.720335e+01  7.848599e+00  2.030347e+01
      vertex  -6.872996e+01  7.848600e+00  1.598718e+01
    endloop
  endfacet
  facet normal  1.222509e-07  1.000000e+00 -5.083623e-08
    outer loop
      vertex  -7.428980e+01  7.848600e+00  1.264185e+01
      vertex  -6.889354e+01  7.848600e+00  2.561878e+01
      vertex  -6.720335e+01  7.848599e+00  2.030347e+01
    endloop
  endfacet
  facet normal  0.000000e+00  1.000000e+00  0.000000e+00
    outer loop
      vertex  -7.241958e+01  7.848600e+00  2.818866e+01
      vertex  -6.889354e+01  7.848600e+00  2.561878e+01
      vertex  -7.428980e+01  7.848600e+00  1.264185e+01
    endloop
  endfacet
  facet normal  0.000000e+00  1.000000e+00  0.000000e+00
    outer loop
      vertex  -7.576346e+01  7.848600e+00  2.866499e+01
      vertex  -7.241958e+01  7.848600e+00  2.818866e+01
      vertex  -7.428980e+01  7.848600e+00  1.264185e+01
    endloop
  endfacet
  facet normal  0.000000e+00  1.000000e+00  0.000000e+00
    outer loop
      vertex  -7.428980e+01  7.848600e+00  1.264185e+01
      vertex  -7.890145e+01  7.848600e+00  2.789270e+01
      vertex  -7.576346e+01  7.848600e+00  2.866499e+01
    endloop
  endfacet
  facet normal  0.000000e+00  1.000000e+00  0.000000e+00
    outer loop
      vertex  -7.428980e+01  7.848600e+00  1.264185e+01
      vertex  -8.206001e+01  7.848600e+00  2.510174e+01
      vertex  -7.890145e+01  7.848600e+00  2.789270e+01
    endloop
  endfacet
  facet normal  0.000000e+00  1.000000e+00  0.000000e+00
    outer loop
      vertex  -7.428980e+01  7.848600e+00  1.264185e+01
      vertex  -8.336586e+01  7.848600e+00  2.135909e+01
      vertex  -8.206001e+01  7.848600e+00  2.510174e+01
    endloop
  endfacet
  facet normal -1.458369e-07  1.000000e+00 -1.518398e-07
    outer loop
      vertex  -7.428980e+01  7.848600e+00  1.264185e+01
      vertex  -8.282228e+01  7.848599e+00  1.769661e+01
      vertex  -8.336586e+01  7.848600e+00  2.135909e+01
    endloop
  endfacet
  facet normal  7.566325e-08  1.000000e+00  2.220547e-07
    outer loop
      vertex  -7.428980e+01  7.848600e+00  1.264185e+01
      vertex  -8.092028e+01  7.848600e+00  1.490113e+01
      vertex  -8.282228e+01  7.848599e+00  1.769661e+01
    endloop
  endfacet
  facet normal  0.000000e+00  1.000000e+00  0.000000e+00
    outer loop
      vertex  -7.428980e+01  7.848600e+00  1.264185e+01
      vertex  -7.822678e+01  7.848600e+00  1.311547e+01
      vertex  -8.092028e+01  7.848600e+00  1.490113e+01
    endloop
  endfacet
endsolid vcg
