solid OpenSCAD_Model
  facet normal 0 -0.707107 0.707107
    outer loop
      vertex 0.14 -0.053033 0.00303301
      vertex 0.15 0 0.056066
      vertex 0.14 0 0.056066
    endloop
  endfacet
  facet normal 0 -0.707107 0.707107
    outer loop
      vertex 0.15 0 0.056066
      vertex 0.14 -0.053033 0.00303301
      vertex 0.15 -0.053033 0.00303301
    endloop
  endfacet
  facet normal 0 0.707107 -0.707107
    outer loop
      vertex 0.15 0 -0.05
      vertex 0.14 0.053033 0.00303301
      vertex 0.15 0.053033 0.00303301
    endloop
  endfacet
  facet normal 0 0.707107 -0.707107
    outer loop
      vertex 0.14 0.053033 0.00303301
      vertex 0.15 0 -0.05
      vertex 0.14 0 -0.05
    endloop
  endfacet
  facet normal 0 -0.707107 -0.707107
    outer loop
      vertex 0.14 0 -0.05
      vertex 0.15 -0.053033 0.00303301
      vertex 0.14 -0.053033 0.00303301
    endloop
  endfacet
  facet normal 0 -0.707107 -0.707107
    outer loop
      vertex 0.15 -0.053033 0.00303301
      vertex 0.14 0 -0.05
      vertex 0.15 0 -0.05
    endloop
  endfacet
  facet normal 1 0 0
    outer loop
      vertex 0.15 0 0.056066
      vertex 0.15 0 -0.05
      vertex 0.15 0.053033 0.00303301
    endloop
  endfacet
  facet normal 1 0 -0
    outer loop
      vertex 0.15 0 -0.05
      vertex 0.15 0 0.056066
      vertex 0.15 -0.053033 0.00303301
    endloop
  endfacet
  facet normal 0 0.707107 0.707107
    outer loop
      vertex 0.15 0.053033 0.00303301
      vertex 0.14 0 0.056066
      vertex 0.15 0 0.056066
    endloop
  endfacet
  facet normal 0 0.707107 0.707107
    outer loop
      vertex 0.14 0 0.056066
      vertex 0.15 0.053033 0.00303301
      vertex 0.14 0.053033 0.00303301
    endloop
  endfacet
  facet normal -1 0 0
    outer loop
      vertex 0.14 0 -0.05
      vertex 0.14 0 0.056066
      vertex 0.14 0.053033 0.00303301
    endloop
  endfacet
  facet normal -1 0 -0
    outer loop
      vertex 0.14 0 0.056066
      vertex 0.14 0 -0.05
      vertex 0.14 -0.053033 0.00303301
    endloop
  endfacet
endsolid OpenSCAD_Model
